<svg xmlns="http://www.w3.org/2000/svg" width="34.875" height="34.875" viewBox="0 0 34.875 34.875">
  <defs>
    <style>
      .cls-1 {
        fill: #fff;
      }
    </style>
  </defs>
  <path id="Icon_awesome-sync-alt" data-name="Icon awesome-sync-alt" class="cls-1" d="M26.066,9.371A11.815,11.815,0,0,0,6.543,15.107a.846.846,0,0,1-.819.643H1.695a.843.843,0,0,1-.83-1A17.44,17.44,0,0,1,30.046,5.392l2.511-2.511a1.687,1.687,0,0,1,2.881,1.193V13.5a1.687,1.687,0,0,1-1.687,1.688H24.324a1.688,1.688,0,0,1-1.193-2.881ZM2.25,20.813h9.426a1.688,1.688,0,0,1,1.193,2.881L9.934,26.629a11.815,11.815,0,0,0,19.523-5.735.846.846,0,0,1,.819-.643h4.029a.843.843,0,0,1,.83,1A17.44,17.44,0,0,1,5.954,30.608L3.443,33.119A1.687,1.687,0,0,1,.563,31.926V22.5A1.687,1.687,0,0,1,2.25,20.813Z" transform="translate(-0.563 -0.563)"/>
</svg>
